<svg viewBox="0 0 50 50" xmlns="http://www.w3.org/2000/svg"><path d="M37 12.5v9.45a10 10 0 1 1 2 0V16.5l3.6-2.7a1 1 0 1 0-1.2-1.6L39 14V8a1 1 0 0 0-2 0v2l-2.4-1.8a1 1 0 1 0-1.2 1.6ZM39 46h3.7a2.554 2.554 0 0 0-1.147-1.105 1 1 0 1 1 .894-1.79A4.591 4.591 0 0 1 44 44.345a4.591 4.591 0 0 1 1.553-1.24 1 1 0 0 1 .894 1.79A2.55 2.55 0 0 0 45.301 46H47a1 1 0 0 1 0 2H3a1 1 0 0 1 0-2h1v-5H3a1 1 0 0 1 0-2h1V26a1 1 0 0 1 2 0v1h22v-1a1 1 0 0 1 2 0v13h1a1 1 0 0 1 0 2h-1v5h7V21.95c.33.03.66.05 1 .05s.67-.02 1-.05v9.812l2.408-2.157A3.454 3.454 0 0 1 41 28a3.5 3.5 0 1 1 3.5 3.5 3.456 3.456 0 0 1-1.697-.458L39 34.447Zm-15-5H10v5h14Zm4-8H6v2h22ZM3.93 15.656a3.015 3.015 0 0 1 3.378.729l-.752.322a1 1 0 0 0-.525 1.313 1.017 1.017 0 0 0 1.313.525l3.676-1.576a1 1 0 1 0-.788-1.838l-.75.322a2.996 2.996 0 0 1 1.8-2.948 1 1 0 1 0-.787-1.838 5.051 5.051 0 0 0-2.886 3.405 5.328 5.328 0 0 0-4.467-.254 1 1 0 1 0 .788 1.838ZM14.142 4.505a2.996 2.996 0 0 1 1.8 2.948l-.75-.322a1 1 0 1 0-.788 1.838c1.226.525 2.455 1.043 3.677 1.576a1.017 1.017 0 0 0 1.313-.525 1 1 0 0 0-.525-1.313l-.752-.322a2.965 2.965 0 0 1 3.378-.729 1 1 0 0 0 .788-1.838 5.07 5.07 0 0 0-4.467.263 4.995 4.995 0 0 0-2.886-3.414 1 1 0 1 0-.788 1.838Z" fill="#d4c17f"/></svg>