<svg height="32" style="shape-rendering:geometricPrecision;text-rendering:geometricPrecision;image-rendering:optimizeQuality;fill-rule:evenodd;clip-rule:evenodd" viewBox="0 0 846.66 846.66" width="32" xml:space="preserve" xmlns="http://www.w3.org/2000/svg"><path d="M97.17 185.96H440.9V83.34c0-11.49 9.31-20.81 20.8-20.81h287.79c11.49 0 20.81 9.32 20.81 20.81v659.18h48.48c27.36 0 27.36 41.61 0 41.61H27.88c-27.36 0-27.36-41.61 0-41.61h48.49V206.76c0-11.48 9.31-20.8 20.8-20.8zM309.6 742.52v-81.83h-60.33v81.83h60.33zm-101.94 0V639.88c0-11.48 9.31-20.8 20.8-20.8h101.95c11.49 0 20.8 9.32 20.8 20.8v102.64h89.69V227.57H117.98v514.95h89.68zm335.52-593.64h124.83c11.49 0 20.81 9.31 20.81 20.8v374.5c0 11.49-9.32 20.8-20.81 20.8H543.18c-11.49 0-20.81-9.31-20.81-20.8v-374.5c0-11.49 9.32-20.8 20.81-20.8zm104.03 41.6h-83.23v332.89h83.23V190.48zM180.09 401.66h68.66c11.49 0 20.8 9.32 20.8 20.81v68.65c0 11.49-9.31 20.81-20.8 20.81h-68.66c-11.49 0-20.81-9.32-20.81-20.81v-68.65c0-11.49 9.32-20.81 20.81-20.81zm47.85 41.61h-27.05v27.05h27.05v-27.05zm82.19-41.61h68.65c11.49 0 20.81 9.32 20.81 20.81v68.65c0 11.49-9.32 20.81-20.81 20.81h-68.65c-11.49 0-20.81-9.32-20.81-20.81v-68.65c0-11.49 9.32-20.81 20.81-20.81zm47.85 41.61h-27.05v27.05h27.05v-27.05zM180.09 268.51h68.66c11.49 0 20.8 9.31 20.8 20.8v68.66c0 11.49-9.31 20.8-20.8 20.8h-68.66c-11.49 0-20.81-9.31-20.81-20.8v-68.66c0-11.49 9.32-20.8 20.81-20.8zm47.85 41.61h-27.05v27.04h27.05v-27.04zm82.19-41.61h68.65c11.49 0 20.81 9.31 20.81 20.8v68.66c0 11.49-9.32 20.8-20.81 20.8h-68.65c-11.49 0-20.81-9.31-20.81-20.8v-68.66c0-11.49 9.32-20.8 20.81-20.8zm47.85 41.61h-27.05v27.04h27.05v-27.04zm124.53 432.4h246.18V104.14H482.51v638.38z" style="fill:#d4c17f;fill-rule:nonzero"/></svg>