<svg version="1.1" id="Layer_1" xmlns="http://www.w3.org/2000/svg" x="0" y="0" viewBox="0 0 64 64" style="enable-background:new 0 0 64 64" xml:space="preserve"><style>.st3{stroke-linecap:round}.st3,.st4{fill:#d4c17f;stroke:#d4c17f;stroke-width:2;stroke-miterlimit:10}</style><path fill="#d4c17f" d="M51 27.5c-1.6 0-3.2.4-4.6 1l-.2-.4c1.4-.6 2.8-.9 4.4-.9 1.2 0 2.4.2 3.5.6.5.2 1.1-.1 1.3-.6.2-.5-.1-1.1-.6-1.3-1.3-.4-2.7-.7-4.1-.7-2 0-3.8.4-5.5 1.2l-1.3-2-.2-.2.7-1.3 2.8.3h.1c.5 0 .9-.4 1-.9.1-.5-.3-1-.9-1.1l-8.4-.9c-.5-.1-1 .3-1.1.9s.3 1 .9 1.1l3.4.4-.5 1.1-20.7-.9c.3-1.2.5-2.3.6-2.9 1.5 1.3 3.6 2 6.3 2.3h.1c.5 0 .9-.4 1-.9.1-.5-.3-1-.9-1.1-2.5-.3-4.3-1-5.5-2.2 2.5-2.7 6-2 6.2-2 .5.1 1.1-.2 1.2-.8.1-.5-.2-1.1-.8-1.2-.2 0-5.3-1.1-8.6 3.2-.4.5-.7 1.2-.9 1.9l-.1.3c-.2 1.2-.8 3.8-1.4 6.5-1.4-.5-3-.8-4.6-.8-2.2 0-4.3.5-6.3 1.6-.5.3-.7.9-.4 1.4.3.5.9.7 1.4.4 1.6-.9 3.4-1.3 5.3-1.3 1.4 0 2.8.3 4.1.8-.1.3-.1.6-.2.9-1.4-.6-2.9-1-4.5-1-6.1 0-11 4.9-11 11s4.9 11 11 11 11-4.9 11-11c0-3.7-1.9-7-4.7-9 .1-.3.2-.6.2-1 3.1 2 5.2 5.4 5.2 9.4 0 .6.4 1 1 1s1-.4 1-1c0-4.9-2.7-9.2-6.7-11.4.1-.3.1-.6.2-.9l11.3 11.5v.5c0 2.1 1.7 3.8 3.8 3.8h.2l.6 2.6-2.3.5c-.5.1-.9.7-.8 1.2.1.5.5.8 1 .8h.2l4-.9c.5-.1.9-.7.8-1.2-.1-.5-.5-.8-1-.8l-.7-3.1c.1-.1.3-.2.4-.3.1 0 .2.1.3.1h2.3c1 5 5.5 8.7 10.8 8.7 6.1 0 11-4.9 11-11s-5-11-11.1-11zM22 38.9c0 5-4 9-9 9s-9-4-9-9 4-9 9-9c1.4 0 2.8.3 4 .9 0 .1 0 .2-.1.2-.9 3.3-3 5.3-3.7 5.9H13c-1.1 0-2 .9-2 2s.9 2 2 2 2-.9 2-2c0-.3-.1-.5-.1-.7 1.1-.9 2.9-3 3.9-6.2 1.9 1.7 3.2 4.1 3.2 6.9zm20.6-12.6.7 1.1c-.8.5-1.6 1.2-2.3 1.9l1.6-3zM22 24.9l18.7.8-4.3 8.6c-.4-.1-.7-.2-1.1-.2h-.1l-.7-2.6 2.2-.6c.5-.1.9-.7.7-1.2-.1-.5-.7-.9-1.2-.7l-4 1.1c-.5.1-.9.7-.7 1.2.1.4.5.7 1 .7h.1l.7 2.7c-.3.2-.6.5-.8.7L22 24.9zm11.5 13c0-1 .8-1.8 1.8-1.8s1.8.8 1.8 1.8-.8 1.8-1.8 1.8-1.8-.9-1.8-1.8zm5.9.8c0-.1.1-.2.1-.4 0-3.9 2-7.3 5-9.3l.3.4c-2.8 2-4.7 5.3-4.7 9v.3h-.7zm9.6-.2v.3h-7v-.3c0-3 1.5-5.7 3.8-7.3l3.8 5.9c-.4.3-.6.8-.6 1.4zm2 9c-4.2 0-7.7-2.9-8.7-6.7h6.9c.5 0 .9-.1 1.3-.3.2 0 .3.1.5.1 1.1 0 2-.9 2-2 0-.9-.6-1.6-1.4-1.9l-4.1-6.4c1.1-.5 2.3-.7 3.5-.7 5 0 9 4 9 9s-4 8.9-9 8.9z"/></svg>