<svg viewBox="0 0 64 64" xmlns="http://www.w3.org/2000/svg"><path fill="#d4c17f" d="M57.04 41.92h-.9c0-.62.04-1.26.17-1.94.27-1.42-.04-2.66-.85-3.39-.7-.63-1.67-.8-2.74-.48-.43.13-.82.32-1.23.48.18-.43.37-.87.55-1.24.59-1.22.56-2.43-.08-3.23-.21-.27-.5-.45-.81-.6.66-1.06 1.06-2.3 1.06-3.63l.03-1.11c1.25-.42 2.17-1.57 2.17-2.96 0-1.74-1.42-3.16-3.16-3.16H37.51v-.19c0-1.74-1.42-3.16-3.15-3.16h-1.38v-1.82c0-1.19.97-2.17 2.17-2.17s2.17.97 2.17 2.17c0 .55.45 1 1 1s1-.45 1-1c0-2.3-1.87-4.17-4.17-4.17-.77 0-1.47.23-2.09.59.37-2.58 2.58-4.57 5.26-4.57s4.89 1.91 5.27 4.54c.08.55.59.93 1.13.84.55-.08.92-.59.84-1.13-.53-3.62-3.58-6.25-7.25-6.25-2.72 0-5.07 1.5-6.33 3.7-1.27-2.2-3.62-3.7-6.33-3.7-3.67 0-6.72 2.63-7.25 6.25-.08.55.3 1.05.84 1.13.54.09 1.05-.3 1.13-.84.39-2.63 2.61-4.54 5.27-4.54s4.88 1.99 5.26 4.57c-.62-.36-1.32-.59-2.09-.59-2.3 0-4.17 1.87-4.17 4.17 0 .55.45 1 1 1s1-.45 1-1c0-1.19.97-2.17 2.17-2.17s2.17.97 2.17 2.17v1.82H29.6c-1.74 0-3.15 1.42-3.15 3.16v.19H12.74c-1.74 0-3.16 1.42-3.16 3.16 0 1.39.91 2.53 2.16 2.95v1.09c0 1.35.4 2.6 1.07 3.67-.3.14-.57.32-.77.58-.64.8-.66 2.01-.08 3.23.18.37.37.81.55 1.24-.4-.17-.79-.36-1.23-.48-1.07-.32-2.04-.15-2.74.48-.81.73-1.12 1.97-.85 3.39.13.68.17 1.32.17 1.94h-.9C5.33 41.91 4 43.24 4 44.87v10.79c0 1.63 1.33 2.96 2.96 2.96h50.08c1.63 0 2.96-1.33 2.96-2.96V44.87c0-1.63-1.33-2.96-2.96-2.96Zm-3.75-3.89c.26-.08.62-.14.82.05.22.2.37.75.23 1.53-.15.8-.2 1.57-.2 2.32h-4.13c.1-.85.26-1.69.5-2.52.8-.58 1.73-1.05 2.79-1.37Zm-10.97 3.89v-.82c0-.77-.3-1.44-.74-2.01 1.11-1.82 2.55-3.3 4.36-4.33 1.33-.13 2.55-.63 3.55-1.4l.15-.04c.42-.09.68-.04.75.05.09.11.13.52-.16 1.12-.55 1.15-1.15 2.6-1.61 4.16-.31 1.06-.52 2.16-.63 3.27h-5.68Zm-18.65 0v-.82c0-.75.61-1.37 1.37-1.37h13.91c.75 0 1.37.61 1.37 1.37v.82H23.68Zm-7.68 0c-.11-1.1-.32-2.2-.63-3.26-.46-1.57-1.06-3.03-1.61-4.17-.29-.6-.25-1-.16-1.12.07-.09.34-.14.75-.05l.09.02c1.02.79 2.26 1.3 3.62 1.42 1.81 1.03 3.24 2.51 4.35 4.33-.43.57-.74 1.24-.74 2.01v.82h-5.68Zm-2.26-14.93h36.51l-.02.89c0 2.73-2.22 4.95-4.95 4.95H18.69c-2.73 0-4.95-2.22-4.95-4.95v-.89Zm26.18 10.94c-.31-.09-.62-.19-.96-.19h-1.11v-2.9h4.64c-.99.89-1.85 1.93-2.58 3.1Zm-8.41-.19v-2.9h1.01v2.9H31.5Zm-3.34 0v-2.9h1.34v2.9h-1.34Zm-3.11 0c-.34 0-.65.1-.95.19-.73-1.17-1.59-2.21-2.58-3.1h4.64v2.9h-1.11Zm9.46-2.9h1.34v2.9h-1.34v-2.9Zm-6.03-14.35c0-.64.52-1.16 1.15-1.16h4.75c.64 0 1.15.52 1.15 1.16v.19h-7.06v-.19Zm-15.74 2.19h38.52a1.16 1.16 0 0 1 0 2.32H12.74a1.16 1.16 0 0 1 0-2.32ZM9.66 39.61c-.15-.78 0-1.33.22-1.53.2-.18.56-.13.82-.05 1.06.31 1.98.79 2.79 1.37.24.83.4 1.67.5 2.52H9.86c0-.75-.05-1.51-.2-2.32Zm-2.7 4.32h50.08c.53 0 .96.43.96.96v1.89c-.3-.11-.62-.19-.96-.19H6.96c-.34 0-.66.09-.96.19v-1.89c0-.53.43-.96.96-.96ZM58 55.68c0 .53-.43.96-.96.96H6.96a.96.96 0 0 1-.96-.96v-6.14c0-.53.43-.96.96-.96h50.08c.53 0 .96.43.96.96v6.14Z"/><circle cx="11.4" cy="53.33" r="1"/><circle cx="23.71" cy="51.05" r="1"/><circle cx="36.02" cy="54.12" r="1"/><circle cx="45.49" cy="51.52" r="1"/><circle cx="19.33" cy="15.15" r="1"/><circle cx="19.33" cy="18.52" r="1"/><circle cx="44.67" cy="15.15" r="1"/><circle cx="44.67" cy="18.52" r="1"/><circle cx="22.68" cy="16.64" r="1"/><circle cx="41.32" cy="16.64" r="1"/><circle cx="54.25" cy="52.98" r="1"/></svg>