<svg style="enable-background:new 0 0 512 512" viewBox="0 0 512 512" xml:space="preserve" xmlns="http://www.w3.org/2000/svg"><path style="fill:#f1c40f" d="m396.56 38.8-88.61 102.48 88.61 102.45H115.44V38.8z"/><path d="M115.44 483.2c-5.523 0-10-4.478-10-10V243.73c0-5.523 4.477-10 10-10s10 4.477 10 10V473.2c0 5.523-4.477 10-10 10z"/><path d="M396.56 253.73H115.44c-5.523 0-10-4.477-10-10V38.8c0-5.523 4.477-10 10-10h281.12a9.999 9.999 0 0 1 7.564 16.541l-82.954 95.938 82.953 95.91a10 10 0 0 1-7.563 16.541zm-271.12-20h249.25l-74.303-85.909a9.999 9.999 0 0 1-.001-13.082L374.694 48.8H125.44v184.93z"/></svg>