<svg style="enable-background:new 0 0 10.134 15.626" viewBox="0 0 10.134 15.626" xml:space="preserve" xmlns="http://www.w3.org/2000/svg"><path fill="#fff" d="M7.873.853a5.043 5.043 0 0 0-5.612 0A5.03 5.03 0 0 0 .626 7.484l4.441 8.142 4.441-8.142A5.03 5.03 0 0 0 7.873.853zm.758 6.153-3.563 6.533-3.564-6.533a4.036 4.036 0 0 1 1.312-5.321C3.5 1.229 4.283 1 5.067 1s1.567.228 2.251.684a4.038 4.038 0 0 1 1.313 5.322z"/><path fill="#fff" d="M5.067 2.083c-1.378 0-2.5 1.122-2.5 2.5s1.122 2.5 2.5 2.5 2.5-1.122 2.5-2.5-1.121-2.5-2.5-2.5zm0 4c-.827 0-1.5-.673-1.5-1.5s.673-1.5 1.5-1.5 1.5.673 1.5 1.5-.673 1.5-1.5 1.5z"/></svg>